<svg version="1" xmlns="http://www.w3.org/2000/svg" width="512" height="512" viewBox="0 0 384.000000 384.000000"><path d="M42.3 12.7c-2.9.2-5.3.8-5.3 1.2 0 .5-.9 1.1-2.1 1.4-1.6.4-1.9 1-1.4 2.9 1.5 4.8 3.4 6.6 8.7 7.9 5.1 1.3 5.2 1.3 2.1 1.9-6.2 1-1.2 3.7 8.2 4.5 4.3.3 4.5.4 4.5 1.4 0 1.3-15.8.6-31.2-1.4-5.5-.7-4.3 2.7 1.7 4.9l4 1.5-3.5.2c-9.9.6-17.2 1.8-18.4 2.9-.4.4-.5 1.3-.1 2 .7 1.1 3.6 1 13.8-.6 3-.5 3.7-.3 3.7 1 0 1.1 1 1.6 3.3 1.7 1.7 0 10.4.2 19.2.4 19.2.5 50.4 1.5 78.2 2.6 2.4.1 4.1.5 3.8.9-.3.4-1.9.6-3.7.4-1.8-.1-18.8-.2-37.8-.2-19 .1-40.4.1-47.6.1-10.1.1-13.1.4-13 1.4.1.7.5 1.6.9 1.9.4.4 27.1.8 59.4 1 32.4.1 61.7.5 65.3.8 17.9 1.4 34.5 1.9 77.6 2 43.7.1 47.3 0 49.1-1.7 1.1-.9 2.2-1.5 2.4-1.3.3.3 3.4.7 6.9 1 7.3.7 11 1.3 11.8 2 .3.3-4.3 5.4-10.1 11.3-12 12.2-15 15.5-21 22.6-2.3 2.8-5 5.9-5.9 6.9-1 1-1.8 2.1-1.8 2.4 0 .4-1.1 1.7-2.6 3-1.4 1.3-2.1 2.4-1.7 2.4.4 0 .3.4-.3.8s-3.1 3.2-5.6 6.2c-4.1 5.1-16.8 18.2-16.8 17.3 0-.1-1.7 1.6-3.7 3.9-2.1 2.4-6.4 6.9-9.5 10.1-3.2 3.1-5.8 5.9-5.8 6.2 0 .2-1.9 2.4-4.2 4.8-2.4 2.5-6.2 6.7-8.4 9.3-2.3 2.7-5.7 6.5-7.5 8.4-1.9 1.9-4.6 5-6.1 6.9-1.6 1.8-2.8 3.1-2.8 2.7 0-1.6-5.9 2.7-9.8 7.2-2.7 3.1-5 4.8-6 4.6-1.1-.2-3.3 1.6-6.1 5.1-2.4 3-6.3 7.4-8.5 9.9-2.3 2.4-6.3 7-9.1 10.1-2.7 3.1-6.2 7-7.6 8.6-1.4 1.5-4.8 5.4-7.5 8.5-2.7 3.1-5.3 6.2-5.9 6.8-.5.6-4.4 5-8.5 9.6-4.1 4.7-7.9 9-8.5 9.6-.5.6-3.7 4.1-7 7.8-7.8 8.9-14 15.4-13.2 14.1.3-.6.2-1.6-.2-2.3-.8-1.4-5.7 3-12.6 11.4-4.1 4.9-11.1 12.8-15.3 17-2.2 2.3-4.3 3-5.5 1.8-.6-.6 1.9-3.8 8.6-10.7 2-2.2 3.7-4.1 3.7-4.4 0-.2 2.5-2.9 5.5-6s5.5-5.9 5.5-6.3c0-.4 1.1-1.3 2.5-2 1.3-.7 2.3-1.6 2.1-1.9-.1-.3 3.2-4 7.3-8.1 4.2-4.2 6.4-6.2 4.9-4.5-2.7 3-3.5 5.5-2.2 6.8 1.2 1.2 3.3-.5 8.5-7.1 3-3.7 7.5-8.8 10-11.5 2.6-2.6 4.5-4.7 4.2-4.7-.2 0 1.1-1.5 2.9-3.3 1.8-1.9 6.9-7.4 11.3-12.2 4.4-4.9 9.2-10.1 10.8-11.7 1.5-1.6 2.7-3.1 2.7-3.3 0-.3 2.6-3.2 5.8-6.5 3.1-3.2 7.3-7.8 9.2-10.1 1.9-2.3 5.5-6.2 7.9-8.8 9.6-10.2 17.1-17.9 17.1-17.7 0 .7 20.4-20.2 66.5-68 14.1-14.7 17.3-18.8 15.5-19.9-1.4-.8-2.9.3-6.5 4.4-7 8.3-35 35.1-36.6 35.1-.5 0-.9.3-.9.8 0 .4-3.5 3.6-7.7 7.2-8.9 7.4-8.1 6.7-15.3 12.3-3 2.3-5.6 4.5-5.8 4.9-.2.5-.9.8-1.6.8-.6 0-1.9.8-2.7 1.7-.9 1-3.6 3.4-6 5.3s-5.3 4.4-6.5 5.5c-1.2 1.1-3.5 3.1-5 4.4-1.6 1.3-4.9 4.3-7.4 6.5-6.8 6-11.9 10.6-17 15-10 8.6-17.5 15.2-19.6 17.3-1.3 1.3-2.5 2.3-2.7 2.3-.5 0-15.6 14.5-37 35.5C75.9 263 72.4 266.8 67 273.9c-1.4 1.8-7.2 7.2-13 11.9-12.2 10-17.7 14.9-19.9 17.7-.9 1-5 5.3-9.1 9.5-4.4 4.4-7.3 8.2-7.1 9.2.2 1.8 0 2.2-4.3 7.1-1.3 1.5-3.9 4.6-5.8 6.9-1.8 2.3-3.9 4.8-4.7 5.5-.9 1-1.1 2-.4 3.5.8 1.9 1 1.9 2.6.4 1.4-1.4 3.3-1.6 12.9-1.2 6.2.2 14.9 1.1 19.3 1.9 11.6 2.3 13.9 2.6 25.5 3.3 9.8.7 26.7.9 37 .6 13.2-.5 19.3.1 21.5 2.3 1.9 1.7 14.8 7.1 15.7 6.5.2-.1 1.5.3 3.1.9 1.5.6 3.8 1.3 5 1.5 1.2.3 3.3.7 4.7 1.1 3 .6 23.9 4.2 29.5 5 2.3.3 5 .7 6 .9 1.1.2 5.4.7 9.5 1.1 4.1.4 8.4.9 9.5 1.1 1.1.2 4.8.6 8.3.9 3.4.3 7.5.7 9 .9 1.5.2 5.4.7 8.7 1.1 3.2.4 6.8.9 8 1.1 1.1.2 3.6.6 5.5.9 2 .3 8.7 1.4 15 2.5 6.3 1 13.3 2.2 15.5 2.6 2.2.3 4.3.8 4.7 1 .4.3 4.5.7 9.1 1 7.4.5 8.5.4 9.1-1.1.3-1 .5-1.9.4-2-.2-.2-3.7-.5-7.8-.8-4.1-.3-8.5-.8-9.6-1-1.2-.3-3.9-.8-6-1.1-2.2-.4-4.6-.8-5.4-1.1-.8-.2-3.7-.6-6.4-1-2.7-.3-5.2-.8-5.5-.9-.3-.2-2.6-.7-5.1-1-2.5-.3-5.4-.8-6.5-1-4.5-.8-11.2-1.9-14.5-2.2-1.9-.2-5.3-.6-7.5-.9-2.2-.3-6-.7-8.5-1-8.5-.8-16.5-1.6-19-2-1.4-.2-4.7-.6-7.5-.9-2.7-.3-6.1-.8-7.5-1-1.4-.3-7.1-1.2-12.7-2.1-11.7-1.9-13.8-2.3-13.8-2.5 0-.1-1.3-.4-3-.6-8.1-1.3-24.5-6.5-24.5-7.7 0-.8 15.4.2 18 1.2 2.3.9 12.6 3.3 19.5 4.6 1.7.3 4.1.8 5.5 1 1.4.3 4.3.8 6.4 1 2.1.3 4.2.7 4.6 1 .3.2 3.5.7 7.1 1 3.5.3 8 .8 9.9 1 1.9.2 7.1.7 11.5 1 4.4.3 10.7.8 14 1 3.3.3 9.6.7 14 1 16.7 1.2 28.4 2.3 32.4 3 2.8.5 4.1 1.5 1.9 1.5-2.3 0-3 2.7-1 3.5.9.4 5.1 1.1 9.2 1.6 9.6 1.1 13.4 1.7 19 2.7 7.8 1.6 7.2 1.3 11.9 5.2 3.8 3.2 8.6 2.4 13.5-2.1 1.1-1.1 2.6-1.9 3.3-1.9 1.1 0 5.3-2.8 12.3-8.3.9-.7 3.3-2.5 5.5-4.1 5.1-3.8 10.4-9.1 14-14.1 1.6-2.2 4-5.1 5.2-6.4 2.7-2.8 2.8-3.4.9-5-1.2-1-1.7-.8-2.6.9-1.6 3-2.2 1.9-1-1.7 1.1-2.9.8-3.4-5.2-9.6-3.5-3.7-8.3-8.8-10.8-11.4-6-6.2-22-27.6-21.4-28.5.3-.4 1.2-.4 2.1-.1 1.1.4 1.4.2 1.1-.8-.5-1.6-3-1.9-3.9-.6-.4.5-1 .4-1.3-.2-.9-1.4 6.9-6.3 22.6-14.1 8.3-4.1 12.8-6.9 13.1-8.2.4-1.4 1.2-1.8 3-1.4 3.6.6 4.1-1.8 1.2-5.3-1.4-1.6-2.5-3.3-2.5-3.9 0-.5-1.3-2.3-2.8-4-2.6-2.7-3.2-2.9-7-2.2-2.3.4-4.2.6-4.2.3 0-.9-4.6 2.1-5.7 3.8-.7.9-5.7 4.1-11 7-20.8 11.1-32.7 20-34.2 25.6-.8 3.1 1.4 9.4 7.6 21.8 4.1 8.2 6.4 11.9 15.5 25.1 3.7 5.4 6.7 9.9 6.5 10-.1.1-2.9-.2-6.2-.7-7.4-1-15.3-2.1-18.2-2.4-1.4-.2-2.3.2-2.3 1.1 0 1-.5 1.1-2.2.4-1.3-.5-5-1.6-8.3-2.4-5.5-1.4-9.1-2-17.7-3.1-3.2-.4-18.3-1-51.1-2-12-.3-16.1-.8-17.2-1.9-2.7-2.7-18.7-6.6-33.1-8.1-3.8-.4-7.8-.9-8.9-1.1-1.1-.3-5.8-.7-10.5-1-24.4-1.5-37.8-2.4-42-2.9-1.9-.2-7.1-.6-11.5-1s-8.4-1-8.8-1.4c-.4-.4 2.9-4.5 7.3-9.1 4.4-4.5 8-8.4 8-8.4 0-.1 3.5-3.8 7.8-8.3 8-8.4 32.3-33.9 36.4-38.4 1.3-1.4 3.6-2.9 5.1-3.2 1.4-.4 4.7-2.5 7.2-4.7s5.6-4.5 6.8-5.1c1.2-.6 5.1-4.1 8.7-7.8 6.2-6.3 8.8-9.2 17-19.1 1.9-2.4 5.1-6.1 7-8.4 1.9-2.4 5.3-6.4 7.5-9.1 2.2-2.6 5.2-6.1 6.8-7.7 1.5-1.6 2.7-3.1 2.7-3.3 0-1.4 30.5-32.5 31.9-32.5 2 0 10.1-8.2 10.1-10.2 0-1.2 4.8-6.9 11.8-14 27.3-27.9 41.5-42 38.5-38.3-1.7 2.2-7.3 8.3-12.5 13.6-14.1 14.6-18.8 20-19.4 22.6-1.1 4.3 1.9 2.5 10.3-6.4 4.6-4.7 8.3-8.7 8.3-8.9 0-.1 2.8-3.1 6.3-6.7 3.4-3.5 8.7-9.2 11.7-12.7 13.6-15.4 17.3-19.4 31.2-33 8-8 16-15.6 17.6-17 2.2-1.9 2.7-2.9 2.1-4.2-.8-1.5-2.7-1.7-18.2-1.3-9.4.3-19.4.8-22.2 1.2-2.7.4-5.2.6-5.5.6-.3-.1-3.2-.4-6.5-.8-6.3-.8-7.7-.9-22-1.9-4.9-.4-10.1-.9-11.5-1.1-1.4-.2-5-.6-8-.9-3-.3-7.1-.8-9-1.1-1.9-.3-6.1-.8-9.3-1.1-6.6-.8-6.7-1.2-.8-2 2.3-.3 5-.7 5.9-.9.9-.2 3-.4 4.5-.4 2.2-.1 2.8-.5 2.5-1.9-.3-1.6-1.9-1.7-19.1-1.4-11.9.3-18.7 0-18.7-.6 0-1.9-3.5-2.3-20.5-2.8-20.6-.5-40.2-1.2-51-1.9-4.4-.2-14.1-.7-21.5-1-7.4-.3-15.7-.7-18.5-1-2.7-.2-11.5-.6-19.5-1-8-.3-15.8-.8-17.5-1.1-4.3-.6-28-1.1-34.2-.7zm94.7 9.7c3.6.2 7.5.4 8.8.5 2.1.1 2.2.3.8 1.6-.9.9-2.5 1.3-3.8 1-2.6-.5-10.4-1.2-25.3-2.1-5.5-.3-10.6-.9-11.3-1.3-1.2-.7 16.9-.5 30.8.3zm-74 1.9c0 .8-6.7.3-7.6-.5-.2-.3 1.4-.5 3.6-.4 2.2 0 4 .5 4 .9zm5 .3c0 .2-.9.4-2.1.4-1.1 0-1.8-.4-1.4-1 .5-.8 3.5-.3 3.5.6zm11.5.5c.5.8-9.5.2-10.4-.6-.2-.3 1.9-.4 4.8-.4 2.8.1 5.4.5 5.6 1zm12.5.4c5.2.3 11.5.8 14 1 2.5.2 6 .4 7.8.4 1.7.1 3.2.6 3.2 1.2 0 .7-1.5.9-4.2.5-2.4-.3-7.9-.8-12.3-1.2-4.4-.3-9.1-.8-10.5-.9-1.4-.2-4-.4-5.7-.4-1.8-.1-3.3-.6-3.3-1.2 0-.5.3-.8.8-.5.4.2 5 .7 10.2 1.1zm93.7.4c1.2.1 2.8.7 3.5 1.5.8.8 2.1 1.6 2.9 1.9.8.2.1.2-1.6 0-1.6-.3-3.7-.5-4.5-.5-1.8 0-12-2.8-12-3.3 0-.2 2.1-.2 4.8 0 2.6.2 5.7.4 6.9.4zM55 28.5c0 .2-.9.3-1.9.2-1.1 0-1.8-.5-1.5-.9.4-.6 3.4 0 3.4.7zm75.5 0c3.3.2 6 .4 6 .5 0 .1 2.5.3 5.5.5s8.4.7 12 1.1c3.6.4 7.3.6 8.2.6 1 0 2 .4 2.3.9.4.5-.8.7-2.7.4-3.3-.5-7-.8-25.8-2.1-5.8-.3-11.2-.8-12-1-.8-.1-2.5-.3-3.7-.3-1.3-.1-2.3-.6-2.3-1.1 0-.6 1.3-.8 3.3-.4 1.7.3 5.9.7 9.2.9zm87.3 1.8c.6 0 1.2.4 1.2.8s-1.9.5-4.1.3c-2.3-.2-6.8-.5-10-.6-3.2-.2-5.9-.6-5.9-1 0-.5 3.9-.5 8.8-.2 4.8.3 9.3.6 10 .7zm5.2.7c0 .5-.8 1-1.7 1-1.5 0-1.6-.2-.3-1 1.9-1.2 2-1.2 2 0zm120 8.7c0 1.5-3.9 3.8-6 3.5-4.5-.7-5.6-1.3-5.6-3 0-1.5.9-1.8 5.8-1.8 4 0 5.8.4 5.8 1.3zm9.7 1.5c-1.7 1.6-4.4 4-5.9 5.4-1.4 1.3-2.9 2.4-3.2 2.4-1.3 0-.5-2.7 1.4-4.8 1.1-1.2 2-2.5 2-3 0-1.7 2.1-2.8 5.5-2.9l3.5-.1-3.3 3zm-60.7-.8c2.5.3 7 .8 10 1.1 10.1 1.2 6.6 1.7-5.9 1-6.9-.4-13.2-.9-14-1-.9-.2-1.8-.4-2.1-.4-.3-.1.2-.6 1-1.1.8-.6 2.6-.8 4-.5 1.4.2 4.5.6 7 .9zm-171.3.2c-.3.3-1.2.4-1.9.1-.8-.3-.5-.6.6-.6 1.1-.1 1.7.2 1.3.5zm160.6 5.8c.9 0 1.7.4 1.7.8 0 .5-1.9.6-4.2.3-2.4-.3-6.9-.6-10-.6-3.2-.1-5.8-.5-5.8-.9 0-.5 3.7-.6 8.3-.3 4.5.3 9 .6 10 .7zm50.1 3.2c2.3.4 3 1 1.9 1.6-.4.3-3.9-.3-7.8-1.3l-7-1.8 5.5.6c3 .3 6.3.7 7.4.9zM135 50c0 .5-.4 1-1 1-.5 0-1-.5-1-1 0-.6.5-1 1-1 .6 0 1 .4 1 1zm6.5 0c.3.5-.1 1-1 1s-1.3-.5-1-1c.3-.6.8-1 1-1 .2 0 .7.4 1 1zm4.2.6c-.3.3-1.2.4-1.9.1-.8-.3-.5-.6.6-.6 1.1-.1 1.7.2 1.3.5zm4.6.1c-.7.2-1.9.2-2.5 0-.7-.3-.2-.5 1.2-.5s1.9.2 1.3.5zm14.7.6c0 .8-12 0-12.9-.8-.2-.3 2.6-.4 6.2-.2 3.7.1 6.7.5 6.7 1zm28-.4c11.3-.1 24.3-.1 29-.1 12.5-.1 43.9 1.8 44.8 2.6.2.3-18 .3-40.5.1-34.8-.4-44.3-.6-58.6-1.4-1-.1-1.6-.5-1.3-1 .3-.4 1.8-.7 3.3-.5 1.6.2 12 .4 23.3.3zm141.1 8.4c-1 .9-1.1.8-.5-.6.3-1 .9-1.5 1.2-1.2.3.3 0 1.1-.7 1.8zm-10.2-.4c1.1.7 1 1.1-.7 2.2-1.1.7-1.8 1.8-1.6 2.4.4.9-6.9 9.5-8.1 9.5-.2 0-.1-.9.2-2 .7-2.8-1.8-2.6-4.3.3-1 1.2-4.1 5-6.9 8.2-2.7 3.3-8.5 9.7-13 14.1-4.4 4.5-12.3 12.6-17.6 18-9.6 10-15.7 15.5-11.3 10.4 1.2-1.4 3.1-3.6 4.2-5s2.9-3.5 3.9-4.6c1-1.2 4.1-4.8 6.8-8 7.4-8.6 44.9-46.4 46-46.4.6 0 1.6.4 2.4.9zm7.2 3.4c-1 .9-1.1.8-.5-.6.3-1 .9-1.5 1.2-1.2.3.3 0 1.1-.7 1.8zM292 76.4c0 .2-.8 1-1.7 1.7-1.6 1.3-1.7 1.2-.4-.4 1.3-1.6 2.1-2.1 2.1-1.3zm-4.2 4.8c-.8.7-2.5 2.2-3.8 3.3-2 1.6-1.9 1.3.4-1.3 1.7-1.7 3.4-3.2 3.9-3.2.4 0 .2.6-.5 1.2zm-5.8 6.1c0 .2-1.7 1.9-3.7 3.8l-3.7 3.4 3-3.7c2.5-3.1 4.4-4.6 4.4-3.5zm-79.2 68.3c-2.7 2.5-4.8 4.9-4.8 5.4 0 .4-.4 1-.9 1.2-.5.1-4.7 3.9-9.4 8.3s-9.6 8.9-10.9 10c-3 2.4-14 12-17.8 15.5-1.6 1.4-4.5 3.9-6.6 5.7-7.4 6.1-14.6 12.7-34.7 31.6-2.8 2.6-7.3 6.7-10.1 9-2.7 2.3-5.7 4.9-6.5 5.8-.9.8-3.6 3.1-6.1 4.9-2.5 1.9-4.9 4-5.5 4.5-.5.6-2.8 2.4-5 3.9-2.2 1.6 1.1-2.2 7.4-8.3 6.3-6.1 11.8-11.1 12.3-11.1s.6-.4.3-1c-.3-.5-.2-1 .3-1s5-3.9 9.9-8.8c5-4.8 12.5-11.9 16.8-15.7 4.3-3.9 8.5-7.7 9.4-8.5.9-.9 4.5-4 8.1-7 3.6-3 6.7-5.8 6.8-6.3.2-.4 1-.7 1.8-.7.9 0 1.2-.5.9-1-.3-.6-.2-1 .2-1 .5 0 2.4-1.4 4.3-3.1 16.6-15 25-22.3 26.3-22.8.5-.2 2.4-1.7 4.3-3.5 4.7-4.3 6.2-5.6 6.9-5.6.3 0 1.8-1.1 3.3-2.5 1.5-1.4 2.9-2.5 3.2-2.5.3 0-1.6 2.1-4.2 4.6zm23.3.2c-1.2 1.7-2.1 3.4-2.1 3.9s-2.2 3.3-4.8 6.1c-2.7 2.9-4.7 5.2-4.4 5.2.3 0-.6 1-1.9 2.3-1.3 1.2-4.4 4.5-6.7 7.2-15.1 17.2-27.4 30.1-32.7 34-5 3.8-6.6 5.7-6 7.3.5 1.4-18.7 21.2-22.5 23.2-1.8 1-1.5.2 1.6-3.6 2.1-2.7 4.1-5.1 4.4-5.4.9-.9 12.4-15.7 14-18 5.5-8.2 13.1-18 14.9-19.2 1.1-.8 1.8-1.7 1.5-2-.3-.3-.1-.9.5-1.2.6-.4.8.2.6 1.4-.2 1.3.1 2 1.1 2 .8 0 1.4-.5 1.4-1 0-.6.5-1 1.1-1 .6 0 2.5-1.6 4.2-3.6 1.8-2 4.3-4.9 5.7-6.4 1.4-1.5 5.4-6 9-10 3.6-4 9.1-10.1 12.3-13.6 3.2-3.4 6.8-7.3 8-8.6 2.9-3.3 3.5-2.7.8 1zm-78.2 56.9c-1.8 2.1-4.9 5.6-7.1 7.8-2.1 2.2-3.8 4.3-3.8 4.7 0 .5-.9.8-1.9.8-1.1 0-2.6.6-3.3 1.2-7.3 6.6-8.3 7.2-2.8 1.8 6.9-6.9 21.3-20 21.9-20 .1 0-1.2 1.7-3 3.7zm5.7 13.1c-1.7 1.6-1.8 1.6-.5-.5.7-1.2 1.5-2 1.8-1.7.3.2-.3 1.2-1.3 2.2zm-3.8 5.1c-1.3 1.4-3 3.4-3.8 4.3-.8.9-2 2.3-2.5 3-2 2.6-10 12.3-11.1 13.4-.5.6-2.6 3-4.5 5.4-1.8 2.3-4.3 5.2-5.4 6.4-1.1 1.3-4.5 5.1-7.5 8.6-8.3 9.5-30.5 33-27.9 29.5 1.3-1.8 11.8-14.2 14.4-17.1.5-.6 1.9-2.2 3-3.5 4.2-5.1 13.1-15.5 14.3-16.7.6-.7 1.2-1.8 1.2-2.3 0-.6.5-.7 1-.4.6.3 1 .2 1-.4 0-.5 2.3-3.4 5-6.3 2.8-2.9 5-5.7 5-6.1 0-.5.4-.6.9-.3s1.4-.7 1.9-2.3c.6-1.6 4.4-6.3 8.5-10.5 4.1-4.1 7.1-7.9 6.8-8.2-.3-.4 0-.4.7 0 1.1.6.8 1.4-1 3.5zm-31.7 9.4c-1 .9-1.1.8-.5-.6.3-1 .9-1.5 1.2-1.2.3.3 0 1.1-.7 1.8zm-2.1 1c0 .2-1.2 1.4-2.7 2.8l-2.8 2.4 2.4-2.8c2.3-2.5 3.1-3.2 3.1-2.4zm-7.2 7.1c-.7.8-1.5 1.2-1.7 1.1-.5-.6 1-2.5 2-2.5.5 0 .4.6-.3 1.4zm3.9 3.1c-1.5 1.5-3.4 3.7-4.3 5-.9 1.4-2.1 2.5-2.8 2.4-.7 0-.6-.2.2-.6.6-.2 1.2-1.1 1.2-1.8s1.7-2.7 3.7-4.4c4.5-3.7 5.8-4.1 2-.6zm-7.7 0c-.7.8-1.7 1.5-2.3 1.5-.6 0-.2-.7.9-1.5 2.5-1.9 3-1.9 1.4 0zm30.6 5c-5.7 6-6.8 5.7-1.5-.4 2.4-2.8 4.6-4.8 5.1-4.5.4.3-1.2 2.5-3.6 4.9zm-40.6 3c-.7.8-1.7 1.5-2.3 1.5-.6 0-.2-.7.9-1.5 2.5-1.9 3-1.9 1.4 0zm31 7.9c0 .2-.8 1-1.7 1.7-1.6 1.3-1.7 1.2-.4-.4 1.3-1.6 2.1-2.1 2.1-1.3zM76.5 276c-.3.5-1.2 1-1.8 1-.7 0-.6-.4.3-1 1.9-1.2 2.3-1.2 1.5 0zm-4.5 4.1c-1.4 1.1-5.2 4.5-8.5 7.4-3.3 3-7.1 6.4-8.5 7.5-1.4 1.2-4.1 3.6-6 5.3-7.2 6.6-13.1 11-13.8 10.3-.4-.4 0-1.3.9-1.9.9-.7 4.4-3.7 7.9-6.7 3.4-3 7.4-6.4 8.7-7.5 1.4-1.1 3.7-3 5.2-4.3 1.4-1.3 3.8-3 5.4-3.8 1.5-.8 2.7-1.9 2.7-2.4 0-.9 6.9-6 8-6 .3.1-.6 1-2 2.1zm-16.1 21.6c-4.8 5.9-10.9 10.9-10.9 8.8 0-.7 2.8-3.4 7.5-7.3 4.4-3.6 5.4-4 3.4-1.5zm-12.7 13.9c-1 2.6-4.1 4-9 4.1-5.9.1-8.2 1.4-6.4 3.6.9 1 .4 1.3-2.6 1.5l-3.7.3 3-3.3c6.4-7 6.2-6.9 7.9-5.3 1.8 1.9 2.4 1.8 5.4-.5 2.3-1.8 6-2.1 5.4-.4zm13.8 1.2c0 1.7-4.2 4.2-7 4.2-3.3 0-4.6-1.3-2.7-2.8 2.2-1.8 9.7-2.9 9.7-1.4zm16.5 5.4c.6.4-.5.8-2.4.8-3.3 0-3.4-.1-1.5-1.4 1-.8 2.1-1.1 2.4-.8.3.4 1 1 1.5 1.4zm21.5-.8c3 .4 7.1.8 9 1.1 3.1.4 12 1.1 27 2 2.5.2 6.6.3 9.3.4 2.6 0 4.7.5 4.7.9 0 .5-2 .7-4.5.5-2.9-.3-4.5-.1-4.5.6 0 .8-1.9.9-5.7.6-10.3-.9-16.6-1.4-26.8-2.1-5.5-.4-11.8-.8-14-.9-2.2-.2-5.5-.3-7.3-.4-2.9-.1-3.1-.3-2.1-1.9 1.2-1.9 3.2-2 14.9-.8zm-61.7 3.3c-.7.2-1.9.2-2.5 0-.7-.3-.2-.5 1.2-.5s1.9.2 1.3.5zm14.5.8c.4.3-1 .5-3 .3-2-.1-3.4-.6-3.2-1 .6-.9 5.2-.3 6.2.7zm111.6 1.2c9.9.7 13.1 1.1 13.1 1.3 0 .1 1.4.3 3 .4 4.6.4 14.8 2.7 16.5 3.7 1.4.9-7.9.3-12.5-.8-1.1-.2-4.7-.6-8-.8-11.7-.7-25.5-3.1-25.5-4.6 0-.5 1.4-.7 3.2-.4 1.7.3 6.3.8 10.2 1.2zM69 327.9c0 .5-.9.7-2 .4-1.1-.3-2-.7-2-.9 0-.2.9-.4 2-.4s2 .4 2 .9zm-50.1 4.2c-1.3 1.1-2.3 2.6-2.2 3.3.2.6-1.3 1.9-3.2 2.7l-3.4 1.6 4.4-5.1c2.5-2.8 4.5-5.5 4.5-6 0-.6.5-.5 1.2.2.9.9.6 1.6-1.3 3.3zm83.6-2.6c2.8.1 6.7.3 8.8.4 2 0 3.7.5 3.7 1 0 .6-.9.8-1.9.6-1.1-.2-8.4-.7-16.3-1-7.9-.4-16.1-1.1-18.3-1.5-3.6-.7 7.5-.5 24 .5zm27.5 2c3.6.3 10 .8 14.3 1.1 4.3.3 9.3 1.2 11 2l3.2 1.4-3.5-.5c-6.3-1-10.4-1.5-17.5-2.1-3.8-.3-8.1-.7-9.5-.9-1.4-.2-4.6-.3-7.2-.4-2.7-.1-4.8-.5-4.8-1 0-.8 1.6-.8 14 .4zm224.5.5c.3.5.1 1-.4 1-.6 0-1.1-.5-1.1-1 0-.6.2-1 .4-1 .3 0 .8.4 1.1 1zm-287.5.9c0 .5-.9.7-2 .4-1.1-.3-2-.7-2-.9 0-.2.9-.4 2-.4s2 .4 2 .9zm8.8.8c-1 .2-2.8.2-4 0-1.3-.2-.5-.4 1.7-.4 2.2-.1 3.2.1 2.3.4zm5.7.3c-.3.5-1.2.7-2 .3-2.1-.7-1.9-1.3.6-1.3 1.1 0 1.8.4 1.4 1zm16 .5c7.2.4 13.7 1.1 14.5 1.6 1.3.7-8.9.4-16.5-.6-1.1-.1-4.4-.3-7.2-.4-3 0-5.3-.6-5.3-1.2 0-.5.3-.8.8-.6.4.3 6.6.8 13.7 1.2zm-64.4 0c1.1.4 1.7 1 1.4 1.5-.3.5-1.2.7-2 .4-.8-.3-2.2.1-3.1 1.1-1.2 1.1-2.5 1.4-4.8.9-3.9-.8-4.1-1-2.8-2.7 1.2-1.4 8.2-2.2 11.3-1.2zm325.6 2.2c0 .9-.4 1-1.4.2-.7-.6-1.3-1.2-1.3-1.4 0-.1.6-.2 1.3-.2.8 0 1.4.6 1.4 1.4zM188 338.5c3.6.9 7.6 1.7 9 1.9 1.4.1 5 .6 8 1s6.8.9 8.5 1c1.6.2 3.1.8 3.3 1.5.3.8-.5 1-2.5.6-1.5-.3-7.1-.7-12.3-1-9.4-.5-20.2-2.9-27-5.9l-3.5-1.6 5 .5c2.8.3 7.9 1.2 11.5 2zm-49.5.5c3.3.6 6.9 1.2 8 1.4 1.1.2 3.8.7 6 1.1 2.2.4 5.1.9 6.5 1.2 2.5.5 5.2.8 11 1.1 1.7.1 3 .6 3 1.1 0 .9-10.8.6-14.2-.5-4.4-1.4-11.3-1.3-13.6.3-2.6 1.6-9.4 1-11.5-1.1-.7-.7-1.8-1.1-2.4-.9-.8.3-1.1-.4-.8-1.7.4-1.9.2-2-1.2-.8-1.2.9-1.5.9-.9 0 .5-.8-.2-1.2-2.3-1.2-1.7 0-3.1-.5-3.1-1 0-1.1 4-.8 15.5 1zm-91.9-.2c-.2.4-.1 1.4.4 2.2.7 1.2 1.4 1.1 4.2-.4 4.2-2.3 7.3-1.8 7.4 1.1.1 1.9-.3 2.1-4.5 1.8-2.5-.2-6.6-.5-9-.6l-4.4-.2 2.7-2.4c2.7-2.3 4.1-3 3.2-1.5zm38.4.8c.2.3-.7.4-2.2.2-1.5-.2-3-.7-3.4-1.1-.3-.3.6-.4 2.2-.1 1.6.3 3.1.7 3.4 1zm165.3-.9c-.7.2-1.9.2-2.5 0-.7-.3-.2-.5 1.2-.5s1.9.2 1.3.5zm19.5.4c2.3.2 4.2.6 4.2 1s-2.4.6-5.2.3c-2.9-.3-6.9-.5-8.8-.5-2 0-4.2-.4-5-.9-1-.6.7-.8 4.5-.5 3.3.2 7.9.5 10.3.6zm-164.3 1.4c7.5.6 11.3 1.3 13.3 2.5 1.4.9 1.3 1-.8.5-2.5-.4-5.7-.7-21.2-2.1-4.3-.4-7.8-1-7.8-1.5 0-.4 2.6-.5 5.8-.3 3.1.3 8 .7 10.7.9zm172.8.2c-.7.2-1.9.2-2.5 0-.7-.3-.2-.5 1.2-.5s1.9.2 1.3.5zm-191.5 3.8c.3.3-.4.4-1.6.2-1.2-.2-2.4-.6-2.8-1-.4-.3.4-.4 1.6-.2 1.2.2 2.5.7 2.8 1zm118.7 5.9c1.7.3 4 .7 5.2.9 1.2.2 2.6.7 3 1.1.9.9-10.5-.3-21.2-2.3-4.7-.9-4.5-.9 2.5-.6 4.1.2 8.9.7 10.5.9zm12.8 2.3c-.7.2-1.9.2-2.5 0-.7-.3-.2-.5 1.2-.5s1.9.2 1.3.5zm59.7 1.7c4.1.8 14.9 1.7 24.4 2.2 4.9.2 9.2.7 9.5 1 .6.7-27.6-.3-31.9-1.1-8.6-1.7-13-2.7-13-3.1 0-.5 5.7.1 11 1zm-12.3 8.2c-.3.3-1.2.4-1.9.1-.8-.3-.5-.6.6-.6 1.1-.1 1.7.2 1.3.5zm34.8 6.4c-.3.5-1.8.9-3.3.9l-2.7-.1 3-.8c1.7-.4 3.1-.8 3.3-.9.2 0 0 .3-.3.9z"/></svg>